<?xml version="1.0" encoding="UTF-8" standalone="no"?>
<svg
   xmlns:svg="http://www.w3.org/2000/svg"
   xmlns="http://www.w3.org/2000/svg"
   width="1500"
   height="1500"
   viewBox="0 0 1242 1350"
   version="1.1"
   id="svg8"
   >
  <style>text{font-family:'Droid Sans Mono';font-weight:normal;font-style:normal;}</style>
<rect width="100%" height="100%" style="fill:rgba(255,255,255,0)"></rect>
<text transform="translate(421,274)" font-size="73" style="fill:rgb(9, 9, 9)">Charmer</text>
<text transform="translate(1127,947) rotate(-90)" font-size="73" style="fill:rgb(53, 53, 53)">Chappaqua Wrestling</text>
<text transform="translate(779,308)" font-size="73" style="fill:rgb(138, 138, 138)">Eminem</text>
<text transform="translate(411,799) rotate(-90)" font-size="73" style="fill:rgb(146, 146, 146)">Movements</text>
<text transform="translate(1185,641) rotate(-90)" font-size="73" style="fill:rgb(81, 81, 81)">Moose Blood</text>
<text transform="translate(342,344)" font-size="67" style="fill:rgb(0, 0, 0)">Bay Faction</text>
<text transform="translate(591,213)" font-size="47" style="fill:rgb(129, 129, 129)">Avenged Sevenfold</text>
<text transform="translate(814,975)" font-size="47" style="fill:rgb(32, 32, 32)">Rammstein</text>
<text transform="translate(166,1272) rotate(-90)" font-size="47" style="fill:rgb(0, 0, 0)">Home</text>
<text transform="translate(779,1020)" font-size="47" style="fill:rgb(1, 1, 1)">softy</text>
<text transform="translate(341,894)" font-size="47" style="fill:rgb(4, 4, 4)">ENRA</text>
<text transform="translate(220,1151)" font-size="47" style="fill:rgb(11, 11, 11)">Trxxshed</text>
<text transform="translate(767,1067)" font-size="47" style="fill:rgb(159, 159, 159)">brillion.</text>
<text transform="translate(170,1042)" font-size="47" style="fill:rgb(0, 0, 0)">less.people</text>
<text transform="translate(859,1105)" font-size="47" style="fill:rgb(116, 116, 116)">Dontcry</text>
<text transform="translate(154,1094)" font-size="47" style="fill:rgb(0, 0, 0)">Ky akasha</text>
<text transform="translate(1019,1012)" font-size="47" style="fill:rgb(0, 0, 0)">Yasumu</text>
<text transform="translate(194,1192)" font-size="47" style="fill:rgb(0, 0, 0)">Laffey</text>
<text transform="translate(890,898)" font-size="47" style="fill:rgb(0, 0, 0)">Kupla</text>
<text transform="translate(444,396)" font-size="47" style="fill:rgb(24, 24, 24)">S N U G</text>
<text transform="translate(453,856) rotate(-90)" font-size="47" style="fill:rgb(202, 202, 202)">Mondo Loops</text>
<text transform="translate(219,1240)" font-size="47" style="fill:rgb(33, 33, 33)">Towerz</text>
<text transform="translate(735,243)" font-size="37" style="fill:rgb(124, 124, 124)">Dillan Witherow</text>
<text transform="translate(1046,1069)" font-size="37" style="fill:rgb(0, 0, 0)">Monma</text>
<text transform="translate(819,159)" font-size="37" style="fill:rgb(28, 28, 28)">Nothingtosay</text>
<text transform="translate(113,1250) rotate(-90)" font-size="37" style="fill:rgb(0, 0, 0)">Casiio</text>
<text transform="translate(829,1146)" font-size="37" style="fill:rgb(202, 202, 202)">Alan Walker</text>
<text transform="translate(191,1291)" font-size="37" style="fill:rgb(55, 55, 55)">50 Cent</text>
<text transform="translate(954,931)" font-size="37" style="fill:rgb(0, 0, 0)">WYS</text>
  <defs
     id="defs2" />
  <metadata
     id="metadata5">
    </metadata>
  <path
     id="path953"
     style="fill:none;stroke:#000000;stroke-width:11.169;stroke-linecap:butt;stroke-linejoin:miter;stroke-miterlimit:4;stroke-dasharray:none;stroke-opacity:1"
     d="m 1205.2969,25.93376 c -1.679,-0.006 -3.3539,0.162446 -4.998,0.501121 L 338.86912,204.0186 c -11.26975,2.32439 -19.34328,12.20764 -19.32227,23.65348 l 1.375,717.52723 c -26.18107,-3.26423 -66.74701,-6.05081 -110.58594,-0.0875 -37.11133,5.0482 -76.97634,16.3649 -112.021487,40.18262 -35.04514,23.81757 -64.62006,60.69337 -79.2832,112.32577 -15.2810496,53.8084 -12.9639746,98.313 1.22851,133.3903 14.19249,35.0773 39.61682,59.5508 65.77735,75.8765 52.321047,32.6514 110.285157,36.0804 110.285157,36.0804 0.0768,0.01 0.15362,0.011 0.23047,0.016 0,0 28.33787,1.7403 63.50977,-0.9847 35.1719,-2.7251 79.47078,-14.4706 116.86121,-36.7777 60.3526,-36.0063 88.2735,-66.8198 107.91613,-101.0041 20.72035,-36.0602 24.625,-76.7086 24.625,-100.043 V 460.24461 l 535.87898,-113.35725 1.2676,454.10494 c -57.88378,-5.19471 -188.76894,-2.92519 -276.08603,106.3358 -58.45677,73.14774 -53.47045,141.4688 -30.04297,185.5569 23.42747,44.0881 61.95898,67.2934 61.95898,67.2934 0.0247,0.016 0.0494,0.031 0.0742,0.047 0,0 49.47666,40.6158 131.09184,41.8782 35.2431,0.5452 76.16058,-5.5516 114.71688,-17.912 38.5562,-12.3605 73.7827,-28.5341 97.2441,-49.1735 38.4189,-33.7979 80.267,-79.9541 88.0703,-160.65841 2.2677,-23.45334 2.5221,-87.53332 2.4551,-177.55462 -0.067,-90.02129 -0.8262,-203.00448 -1.8086,-313.67379 -1.9648,-221.33862 -4.8223,-433.411558 -4.8223,-433.411558 -0.179,-13.158053 -10.9336,-23.743288 -24.166,-23.785562 z"
     />
</svg>
