<?xml version="1.0" encoding="UTF-8" standalone="no"?>
<svg
   xmlns:svg="http://www.w3.org/2000/svg"
   xmlns="http://www.w3.org/2000/svg"
   version="1.1"
   id="svg833"
   width="1500"
   height="1500"
   viewBox="0 0 1500 1500"
   >

   <style>text{font-family:'Droid Sans Mono';font-weight:normal;font-style:normal;}</style>
<rect width="100%" height="100%" style="fill:white"></rect>
<text transform="translate(883,326)" font-size="93" style="fill:rgb(134, 134, 134)">Charmer</text>
<text transform="translate(1231,955) rotate(-90)" font-size="93" style="fill:rgb(158, 158, 158)">Bay Faction</text>
<text transform="translate(452,407)" font-size="93" style="fill:rgb(0, 0, 0)">Wardruna</text>
<text transform="translate(840,1095)" font-size="38" style="fill:rgb(183, 183, 183)">Chappaqua Wrestling</text>
<text transform="translate(1130,244)" font-size="38" style="fill:rgb(0, 0, 0)">Eminem</text>
<text transform="translate(453,449)" font-size="38" style="fill:rgb(0, 0, 0)">Many Rooms</text>
<text transform="translate(343,1200)" font-size="38" style="fill:rgb(0, 0, 0)">Movements</text>
<text transform="translate(981,1039)" font-size="38" style="fill:rgb(4, 4, 4)">Moose Blood</text>
<text transform="translate(113,1263)" font-size="38" style="fill:rgb(161, 161, 161)">Avenged Sevenfold</text>
<text transform="translate(554,1140) rotate(-90)" font-size="38" style="fill:rgb(206, 206, 206)">Rammstein</text>
<text transform="translate(1052,1170)" font-size="38" style="fill:rgb(3, 3, 3)">softy</text>
<text transform="translate(1267,398) rotate(-90)" font-size="38" style="fill:rgb(116, 116, 116)">ENRA</text>
<text transform="translate(988,363)" font-size="38" style="fill:rgb(129, 129, 129)">Trxxshed</text>
<text transform="translate(466,618) rotate(-90)" font-size="38" style="fill:rgb(0, 0, 0)">Dontcry</text>
<text transform="translate(279,1126)" font-size="38" style="fill:rgb(0, 0, 0)">Yasumu</text>
<text transform="translate(482,1086) rotate(-90)" font-size="38" style="fill:rgb(117, 117, 117)">brillion.</text>
<text transform="translate(253,1295)" font-size="38" style="fill:rgb(105, 105, 105)">less.people</text>
<text transform="translate(1272,705) rotate(-90)" font-size="38" style="fill:rgb(184, 184, 184)">S N U G</text>
<text transform="translate(530,604) rotate(-90)" font-size="38" style="fill:rgb(54, 54, 54)">Jhove</text>
<text transform="translate(565,307)" font-size="38" style="fill:rgb(20, 20, 20)">Mondo Loops</text>
<text transform="translate(921,994)" font-size="38" style="fill:rgb(48, 48, 48)">Dillan Witherow</text>
<text transform="translate(378,1161)" font-size="38" style="fill:rgb(0, 0, 0)">Monma</text>
<text transform="translate(188,1165)" font-size="38" style="fill:rgb(0, 0, 0)">Casiio</text>
<text transform="translate(214,1336)" font-size="38" style="fill:rgb(88, 88, 88)">Laffey</text>
<text transform="translate(958,1203)" font-size="38" style="fill:rgb(77, 77, 77)">Kupla</text>
<text transform="translate(872,1140)" font-size="38" style="fill:rgb(91, 91, 91)">50 Cent</text>
<text transform="translate(427,729)" font-size="38" style="fill:rgb(0, 0, 0)">WYS</text>
<text transform="translate(528,838) rotate(-90)" font-size="38" style="fill:rgb(174, 174, 174)">Ky akasha</text>

  <metadata
     id="metadata839">
    </metadata>
  <defs
     id="defs837" />
  <g
     id="g841">
    <path
       id="path845"
       style="fill:#000000;stroke:#000000;stroke-width:10.4504;stroke-miterlimit:4;stroke-dasharray:none;stroke-opacity:1"
       d="M 270.36927,1404.4979 C 184.8671,1398.3112 93.642734,1329.091 106.47704,1235.606 c 20.00435,-119.3327 147.79981,-187.9997 260.55144,-189.0437 45.94413,1.4315 56.45932,7.5897 56.82109,-45.5319 0.69522,-233.51962 -1.48145,-467.05476 0.20482,-700.56402 288.43989,-59.2215 576.81821,-119.03984 865.68591,-176.05926 1.3255,317.35933 0.8866,634.74928 -1.2616,952.10478 -20.6186,115.0182 -144.7242,177.4973 -252.508,181.5589 -85.52085,6.4784 -187.17843,-38.7224 -203.84074,-130.5648 -12.89174,-105.2934 82.77062,-187.39038 174.98274,-215.53952 48.7716,-19.52429 110.5875,-7.7642 141.2159,-20.3773 0.881,-163.84609 1.4961,-327.74062 -0.3428,-491.57194 -53.898,2.03854 -115.3668,16.98166 -173.27522,26.12333 -135.44416,27.59262 -270.86637,55.29407 -406.32084,82.83533 -1.84365,236.80875 -0.87656,479.74693 -5.42116,716.4922 -27.36225,116.8446 -156.0126,183.9119 -269.08546,180.9168 l -11.78045,-0.6754 z M 320,1402.9471 c 106.59193,-6.2875 229.7654,-82.4906 241.53361,-188.3534 4.40487,-222.19098 -3.26302,-444.65866 6.03805,-666.70897 -4.9607,-57.23687 48.08498,-42.31992 129.92977,-62.68114 C 848.4062,454.4949 999.25615,423.51016 1150.2005,393 c 1.1234,171.65694 1.3337,343.34638 -0.1011,515 -123.3338,-26.63675 -272.85061,37.75149 -312.26339,163.1856 -26.9942,92.0413 59.6833,173.2079 145.77422,182.0014 119.39477,17.337 262.80287,-43.0079 299.75267,-165.2261 6.7421,-162.20401 2.6591,-325.43802 4.5532,-488.04265 -0.021,-157.63697 1.2055,-315.29308 -0.593,-472.91825 -280.4427,57.72546 -580.21929,122.38763 -860.05892,182.90518 -1.77532,53.60713 -0.33813,98.04193 -1.82243,151.65049 -0.50826,197.49534 3.40877,395.27814 -1.95395,592.59633 -120.96373,-23.0058 -265.36796,36.0459 -309.15604,157.2066 -29.35578,84.0088 41.14429,166.7396 121.14572,183.7399 27.44922,7.4487 56.17955,9.8665 84.52252,7.8486 z"
       />
  </g>
</svg>
