<?xml version="1.0" encoding="UTF-8" standalone="no"?>
<svg
   xmlns:svg="http://www.w3.org/2000/svg"
   xmlns="http://www.w3.org/2000/svg"
   width="1500"
   height="1500"
   viewBox="0 0 1500 1500"
   version="1.1"
   id="svg8">
    <style>text{font-family:'Droid Sans Mono';font-weight:normal;font-style:normal;}</style>
<rect width="100%" height="100%" style="fill:white"></rect>
<text transform="translate(683,328)" font-size="93" style="fill:rgb(109, 109, 109)">Charmer</text>
<text transform="translate(508,1008) rotate(-90)" font-size="93" style="fill:rgb(73, 73, 73)">Bay Faction</text>
<text transform="translate(557,401)" font-size="93" style="fill:rgb(142, 142, 142)">Wardruna</text>
<text transform="translate(794,258)" font-size="42" style="fill:rgb(129, 129, 129)">Chappaqua Wrestling</text>
<text transform="translate(752,435)" font-size="42" style="fill:rgb(139, 139, 139)">Eminem</text>
<text transform="translate(951,978)" font-size="42" style="fill:rgb(0, 0, 0)">Many Rooms</text>
<text transform="translate(906,1043)" font-size="42" style="fill:rgb(4, 4, 4)">Movements</text>
<text transform="translate(267,1143)" font-size="42" style="fill:rgb(0, 0, 0)">Moose Blood</text>
<text transform="translate(115,1254)" font-size="42" style="fill:rgb(149, 149, 149)">Avenged Sevenfold</text>
<text transform="translate(904,1147)" font-size="42" style="fill:rgb(119, 119, 119)">Rammstein</text>
<text transform="translate(1195,937) rotate(-90)" font-size="42" style="fill:rgb(0, 0, 0)">softy</text>
<text transform="translate(587,443)" font-size="42" style="fill:rgb(22, 22, 22)">ENRA</text>
<text transform="translate(1215,739) rotate(-90)" font-size="42" style="fill:rgb(120, 120, 120)">Trxxshed</text>
<text transform="translate(169,1209)" font-size="42" style="fill:rgb(29, 29, 29)">brillion.</text>
<text transform="translate(161,1342)" font-size="42" style="fill:rgb(166, 166, 166)">less.people</text>
<text transform="translate(1076,321)" font-size="42" style="fill:rgb(90, 90, 90)">Dontcry</text>
<text transform="translate(246,1286)" font-size="42" style="fill:rgb(87, 87, 87)">Ky akasha</text>
<text transform="translate(980,1203)" font-size="42" style="fill:rgb(114, 114, 114)">Yasumu</text>
<text transform="translate(899,1082)" font-size="42" style="fill:rgb(0, 0, 0)">Laffey</text>
<text transform="translate(1138,1056)" font-size="42" style="fill:rgb(0, 0, 0)">Kupla</text>
<text transform="translate(1042,211)" font-size="42" style="fill:rgb(0, 0, 0)">S N U G</text>
<text transform="translate(1251,889) rotate(-90)" font-size="42" style="fill:rgb(112, 112, 112)">Jhove</text>
<text transform="translate(1010,375)" font-size="42" style="fill:rgb(185, 185, 185)">Mondo Loops</text>
<text transform="translate(1111,1109)" font-size="42" style="fill:rgb(0, 0, 0)">Towerz</text>
<text transform="translate(543,803) rotate(-90)" font-size="42" style="fill:rgb(10, 10, 10)">Dillan Witherow</text>
<text transform="translate(396,1187)" font-size="42" style="fill:rgb(0, 0, 0)">Monma</text>
<text transform="translate(1270,718) rotate(-90)" font-size="42" style="fill:rgb(205, 205, 205)">Nothingtosay</text>
<text transform="translate(281,1094)" font-size="42" style="fill:rgb(0, 0, 0)">Casiio</text>
<text transform="translate(478,322)" font-size="42" style="fill:rgb(0, 0, 0)">50 Cent</text>
<text transform="translate(437,1098)" font-size="42" style="fill:rgb(0, 0, 0)">WYS</text>
  <defs
     id="defs2" />
  <metadata
     id="metadata5">
    </metadata>
  <path
     id="path953"
     style="fill:none;stroke:#000000;stroke-width:11.2;stroke-linecap:butt;stroke-linejoin:miter;stroke-miterlimit:4;stroke-dasharray:none;stroke-opacity:1"
     d="m 1289.832,104.08398 c -1.679,-0.006 -3.3539,0.16335 -4.998,0.50391 L 423.4043,283.16016 c -11.26975,2.33732 -19.34328,12.27559 -19.32227,23.78515 l 1.375,721.52149 c -26.18107,-3.2824 -66.74701,-6.0845 -110.58594,-0.088 -37.11133,5.0763 -76.97634,16.456 -112.02148,40.4063 -35.04514,23.9502 -64.62006,61.0312 -79.2832,112.9511 -15.281049,54.1079 -12.963974,98.8602 1.22851,134.1328 14.19249,35.2726 39.61682,59.8823 65.77735,76.2989 52.32104,32.8331 110.28515,36.2812 110.28515,36.2812 0.0768,0.01 0.15362,0.011 0.23047,0.016 0,0 28.33787,1.75 63.50977,-0.9902 35.1719,-2.7402 73.69355,-7.7269 111.08398,-30.1582 60.3526,-36.2067 94.05073,-74.016 113.69336,-108.3906 C 590.09535,1252.6652 594,1211.7905 594,1188.3262 V 540.8125 l 535.8789,-113.98828 1.2676,456.63281 c -57.8837,-5.22363 -188.76886,-2.94147 -276.08595,106.92774 -58.45677,73.55493 -53.47045,142.25633 -30.04297,186.58983 23.42747,44.3335 61.95898,67.668 61.95898,67.668 0.0247,0.016 0.0494,0.031 0.0742,0.047 0,0 49.47666,40.8419 131.09184,42.1113 35.2431,0.5482 76.1605,-5.5825 114.7168,-18.0117 38.5562,-12.4293 73.7827,-28.693 97.2441,-49.4473 38.4189,-33.986 80.267,-80.3991 88.0703,-161.5527 2.2677,-23.5839 2.5221,-88.02059 2.4551,-178.54301 -0.067,-90.52241 -0.8262,-204.13455 -1.8086,-315.41992 -1.9648,-222.57074 -4.8223,-435.82422 -4.8223,-435.82422 -0.179,-13.2313 -10.9336,-23.87546 -24.166,-23.91797 z"
     transform="translate(-2.8571429,-2.8571429)" />
</svg>
