<?xml version="1.0" encoding="UTF-8" standalone="no"?>
<svg
   xmlns:svg="http://www.w3.org/2000/svg"
   xmlns="http://www.w3.org/2000/svg"
   width="1500"
   height="1500"
   viewBox="0 0 1242 1350"
   version="1.1"
   id="svg8"
   >
  <style>text{font-family:'Droid Sans Mono';font-weight:normal;font-style:normal;}</style>
<rect width="100%" height="100%" style="fill:rgba(255,255,255,0)"></rect>
<text transform="translate(39,1222)" font-size="73" style="fill:rgb(96, 96, 96)">Charmer</text>
<text transform="translate(363,280)" font-size="73" style="fill:rgb(0, 0, 0)">Chappaqua Wrestling</text>
<text transform="translate(839,198)" font-size="73" style="fill:rgb(43, 43, 43)">Eminem</text>
<text transform="translate(431,350)" font-size="73" style="fill:rgb(45, 45, 45)">Movements</text>
<text transform="translate(396,974) rotate(-90)" font-size="73" style="fill:rgb(181, 181, 181)">Moose Blood</text>
<text transform="translate(1124,803) rotate(-90)" font-size="73" style="fill:rgb(52, 52, 52)">Bay Faction</text>
<text transform="translate(45,1138)" font-size="42" style="fill:rgb(74, 74, 74)">Avenged Sevenfold</text>
<text transform="translate(391,394)" font-size="42" style="fill:rgb(0, 0, 0)">Rammstein</text>
<text transform="translate(893,979)" font-size="42" style="fill:rgb(0, 0, 0)">Home</text>
<text transform="translate(294,1043)" font-size="42" style="fill:rgb(0, 0, 0)">softy</text>
<text transform="translate(911,312)" font-size="42" style="fill:rgb(85, 85, 85)">ENRA</text>
<text transform="translate(750,1041)" font-size="42" style="fill:rgb(141, 141, 141)">Trxxshed</text>
<text transform="translate(97,1291)" font-size="42" style="fill:rgb(110, 110, 110)">brillion.</text>
<text transform="translate(813,1117)" font-size="42" style="fill:rgb(181, 181, 181)">less.people</text>
<text transform="translate(427,802) rotate(-90)" font-size="42" style="fill:rgb(133, 133, 133)">Dontcry</text>
<text transform="translate(860,900)" font-size="42" style="fill:rgb(0, 0, 0)">Ky akasha</text>
<text transform="translate(1024,1013)" font-size="42" style="fill:rgb(0, 0, 0)">Yasumu</text>
<text transform="translate(1183,641) rotate(-90)" font-size="42" style="fill:rgb(100, 100, 100)">Laffey</text>
<text transform="translate(345,454)" font-size="42" style="fill:rgb(0, 0, 0)">Kupla</text>
<text transform="translate(1185,867) rotate(-90)" font-size="42" style="fill:rgb(104, 104, 104)">S N U G</text>
<text transform="translate(95,1076)" font-size="42" style="fill:rgb(8, 8, 8)">Mondo Loops</text>
<text transform="translate(957,1056)" font-size="42" style="fill:rgb(0, 0, 0)">Towerz</text>
<text transform="translate(459,1070) rotate(-90)" font-size="42" style="fill:rgb(218, 218, 218)">Dillan Witherow</text>
<text transform="translate(1032,941)" font-size="42" style="fill:rgb(0, 0, 0)">Monma</text>
<text transform="translate(517,222)" font-size="39" style="fill:rgb(40, 40, 40)">Nothingtosay</text>
<text transform="translate(184,1171)" font-size="39" style="fill:rgb(0, 0, 0)">Casiio</text>
<text transform="translate(946,134)" font-size="39" style="fill:rgb(18, 18, 18)">Alan Walker</text>
<text transform="translate(870,1158)" font-size="39" style="fill:rgb(179, 179, 179)">50 Cent</text>
<text transform="translate(1126,329)" font-size="39" style="fill:rgb(0, 0, 0)">WYS</text>
  <defs
     id="defs2" />
  <metadata
     id="metadata5">
    </metadata>
  <path
     id="path953"
     style="fill:none;stroke:#000000;stroke-width:11.169;stroke-linecap:butt;stroke-linejoin:miter;stroke-miterlimit:4;stroke-dasharray:none;stroke-opacity:1"
     d="m 1205.2969,25.93376 c -1.679,-0.006 -3.3539,0.162446 -4.998,0.501121 L 338.86912,204.0186 c -11.26975,2.32439 -19.34328,12.20764 -19.32227,23.65348 l 1.375,717.52723 c -26.18107,-3.26423 -66.74701,-6.05081 -110.58594,-0.0875 -37.11133,5.0482 -76.97634,16.3649 -112.021487,40.18262 -35.04514,23.81757 -64.62006,60.69337 -79.2832,112.32577 -15.2810496,53.8084 -12.9639746,98.313 1.22851,133.3903 14.19249,35.0773 39.61682,59.5508 65.77735,75.8765 52.321047,32.6514 110.285157,36.0804 110.285157,36.0804 0.0768,0.01 0.15362,0.011 0.23047,0.016 0,0 28.33787,1.7403 63.50977,-0.9847 35.1719,-2.7251 79.47078,-14.4706 116.86121,-36.7777 60.3526,-36.0063 88.2735,-66.8198 107.91613,-101.0041 20.72035,-36.0602 24.625,-76.7086 24.625,-100.043 V 460.24461 l 535.87898,-113.35725 1.2676,454.10494 c -57.88378,-5.19471 -188.76894,-2.92519 -276.08603,106.3358 -58.45677,73.14774 -53.47045,141.4688 -30.04297,185.5569 23.42747,44.0881 61.95898,67.2934 61.95898,67.2934 0.0247,0.016 0.0494,0.031 0.0742,0.047 0,0 49.47666,40.6158 131.09184,41.8782 35.2431,0.5452 76.16058,-5.5516 114.71688,-17.912 38.5562,-12.3605 73.7827,-28.5341 97.2441,-49.1735 38.4189,-33.7979 80.267,-79.9541 88.0703,-160.65841 2.2677,-23.45334 2.5221,-87.53332 2.4551,-177.55462 -0.067,-90.02129 -0.8262,-203.00448 -1.8086,-313.67379 -1.9648,-221.33862 -4.8223,-433.411558 -4.8223,-433.411558 -0.179,-13.158053 -10.9336,-23.743288 -24.166,-23.785562 z"
     />
</svg>
