<?xml version="1.0" encoding="UTF-8" standalone="no"?>
<svg
   xmlns:svg="http://www.w3.org/2000/svg"
   xmlns="http://www.w3.org/2000/svg"
   width="1500"
   height="1500"
   viewBox="0 0 1500 1500"
   version="1.1"
   id="svg8">
    <style>text{font-family:'Droid Sans Mono';font-weight:normal;font-style:normal;}</style>
<rect width="100%" height="100%" style="fill:white"></rect>
<text transform="translate(897,352)" font-size="93" style="fill:rgb(153, 153, 153)">Charmer</text>
<text transform="translate(524,1090) rotate(-90)" font-size="93" style="fill:rgb(195, 195, 195)">Bay Faction</text>
<text transform="translate(445,399)" font-size="93" style="fill:rgb(0, 0, 0)">Wardruna</text>
<text transform="translate(786,260)" font-size="44" style="fill:rgb(134, 134, 134)">Chappaqua Wrestling</text>
<text transform="translate(472,469)" font-size="44" style="fill:rgb(0, 0, 0)">Eminem</text>
<text transform="translate(887,1179)" font-size="44" style="fill:rgb(175, 175, 175)">Many Rooms</text>
<text transform="translate(244,1171)" font-size="44" style="fill:rgb(0, 0, 0)">Movements</text>
<text transform="translate(950,1064)" font-size="44" style="fill:rgb(61, 61, 61)">Moose Blood</text>
<text transform="translate(1267,854) rotate(-90)" font-size="44" style="fill:rgb(202, 202, 202)">Avenged Sevenfold</text>
<text transform="translate(231,1299)" font-size="44" style="fill:rgb(109, 109, 109)">Rammstein</text>
<text transform="translate(320,1209)" font-size="44" style="fill:rgb(0, 0, 0)">softy</text>
<text transform="translate(205,1252)" font-size="44" style="fill:rgb(0, 0, 0)">ENRA</text>
<text transform="translate(861,1118)" font-size="44" style="fill:rgb(106, 106, 106)">Trxxshed</text>
<text transform="translate(1029,952)" font-size="44" style="fill:rgb(0, 0, 0)">brillion.</text>
<text transform="translate(171,1332)" font-size="44" style="fill:rgb(149, 149, 149)">less.people</text>
<text transform="translate(588,299)" font-size="44" style="fill:rgb(0, 0, 0)">Dontcry</text>
<text transform="translate(955,988)" font-size="44" style="fill:rgb(0, 0, 0)">Ky akasha</text>
<text transform="translate(276,1135)" font-size="44" style="fill:rgb(0, 0, 0)">Yasumu</text>
<text transform="translate(1086,1123)" font-size="44" style="fill:rgb(5, 5, 5)">Laffey</text>
<text transform="translate(1103,195)" font-size="44" style="fill:rgb(0, 0, 0)">Kupla</text>
<text transform="translate(356,1251)" font-size="44" style="fill:rgb(13, 13, 13)">S N U G</text>
<text transform="translate(217,1381)" font-size="44" style="fill:rgb(160, 160, 160)">Jhove</text>
<text transform="translate(1206,817) rotate(-90)" font-size="44" style="fill:rgb(152, 152, 152)">Mondo Loops</text>
<text transform="translate(932,1221)" font-size="44" style="fill:rgb(163, 163, 163)">Towerz</text>
<text transform="translate(889,386)" font-size="43" style="fill:rgb(195, 195, 195)">Dillan Witherow</text>
<text transform="translate(643,436)" font-size="43" style="fill:rgb(79, 79, 79)">Monma</text>
<text transform="translate(1025,1015)" font-size="35" style="fill:rgb(0, 0, 0)">Nothingtosay</text>
<text transform="translate(689,338)" font-size="35" style="fill:rgb(0, 0, 0)">Casiio</text>
<text transform="translate(275,1091)" font-size="35" style="fill:rgb(0, 0, 0)">50 Cent</text>
<text transform="translate(174,1145)" font-size="35" style="fill:rgb(0, 0, 0)">WYS</text>
  <defs
     id="defs2" />
  <metadata
     id="metadata5">
    </metadata>
  <path
     id="path953"
     style="fill:none;stroke:#000000;stroke-width:11.2;stroke-linecap:butt;stroke-linejoin:miter;stroke-miterlimit:4;stroke-dasharray:none;stroke-opacity:1"
     d="m 1289.832,104.08398 c -1.679,-0.006 -3.3539,0.16335 -4.998,0.50391 L 423.4043,283.16016 c -11.26975,2.33732 -19.34328,12.27559 -19.32227,23.78515 l 1.375,721.52149 c -26.18107,-3.2824 -66.74701,-6.0845 -110.58594,-0.088 -37.11133,5.0763 -76.97634,16.456 -112.02148,40.4063 -35.04514,23.9502 -64.62006,61.0312 -79.2832,112.9511 -15.281049,54.1079 -12.963974,98.8602 1.22851,134.1328 14.19249,35.2726 39.61682,59.8823 65.77735,76.2989 52.32104,32.8331 110.28515,36.2812 110.28515,36.2812 0.0768,0.01 0.15362,0.011 0.23047,0.016 0,0 28.33787,1.75 63.50977,-0.9902 35.1719,-2.7402 73.69355,-7.7269 111.08398,-30.1582 60.3526,-36.2067 94.05073,-74.016 113.69336,-108.3906 C 590.09535,1252.6652 594,1211.7905 594,1188.3262 V 540.8125 l 535.8789,-113.98828 1.2676,456.63281 c -57.8837,-5.22363 -188.76886,-2.94147 -276.08595,106.92774 -58.45677,73.55493 -53.47045,142.25633 -30.04297,186.58983 23.42747,44.3335 61.95898,67.668 61.95898,67.668 0.0247,0.016 0.0494,0.031 0.0742,0.047 0,0 49.47666,40.8419 131.09184,42.1113 35.2431,0.5482 76.1605,-5.5825 114.7168,-18.0117 38.5562,-12.4293 73.7827,-28.693 97.2441,-49.4473 38.4189,-33.986 80.267,-80.3991 88.0703,-161.5527 2.2677,-23.5839 2.5221,-88.02059 2.4551,-178.54301 -0.067,-90.52241 -0.8262,-204.13455 -1.8086,-315.41992 -1.9648,-222.57074 -4.8223,-435.82422 -4.8223,-435.82422 -0.179,-13.2313 -10.9336,-23.87546 -24.166,-23.91797 z"
     transform="translate(-2.8571429,-2.8571429)" />
</svg>
