<?xml version="1.0" encoding="UTF-8" standalone="no"?>
<svg
   xmlns:svg="http://www.w3.org/2000/svg"
   xmlns="http://www.w3.org/2000/svg"
   width="1500"
   height="1500"
   viewBox="0 0 1500 1500"
   version="1.1"
   id="svg1062"
   >
  <style>text{font-family:'Droid Sans Mono';font-weight:normal;font-style:normal;}</style>
<rect width="100%" height="100%" style="fill:white"></rect>
<text transform="translate(416,1098)" font-size="62" style="fill:rgb(127, 127, 127)">lo-fi beats</text>
<text transform="translate(423,881)" font-size="39" style="fill:rgb(0, 0, 0)">alternative emo</text>
<text transform="translate(352,983)" font-size="34" style="fill:rgb(1, 1, 1)">anthem emo</text>
<text transform="translate(730,941)" font-size="28" style="fill:rgb(0, 0, 0)">pop punk</text>
<text transform="translate(525,1176)" font-size="28" style="fill:rgb(0, 0, 0)">hip hop</text>
<text transform="translate(799,565)" font-size="28" style="fill:rgb(0, 0, 0)">rap</text>
<text transform="translate(506,1034)" font-size="28" style="fill:rgb(8, 8, 8)">alternative metal</text>
<text transform="translate(692,989)" font-size="28" style="fill:rgb(0, 0, 0)">nu metal</text>
<text transform="translate(576,836)" font-size="21" style="fill:rgb(0, 0, 0)">bubblegrunge</text>
<text transform="translate(466,1127)" font-size="21" style="fill:rgb(0, 0, 0)">diy emo</text>
<text transform="translate(789,608)" font-size="21" style="fill:rgb(0, 0, 0)">indie punk</text>
<text transform="translate(428,953)" font-size="21" style="fill:rgb(0, 0, 0)">nordic folk</text>
<text transform="translate(734,908)" font-size="21" style="fill:rgb(0, 0, 0)">rune folk</text>
<text transform="translate(418,1214)" font-size="21" style="fill:rgb(168, 168, 168)">viking folk</text>
<text transform="translate(562,1141)" font-size="21" style="fill:rgb(58, 58, 58)">english indie rock</text>
<text transform="translate(582,1005)" font-size="21" style="fill:rgb(0, 0, 0)">manchester indie</text>
<text transform="translate(540,924)" font-size="21" style="fill:rgb(0, 0, 0)">detroit hip hop</text>
<text transform="translate(543,1236)" font-size="21" style="fill:rgb(134, 134, 134)">houston indie</text>
<text transform="translate(663,1182)" font-size="21" style="fill:rgb(27, 27, 27)">midwest emo</text>
<text transform="translate(481,1254)" font-size="21" style="fill:rgb(193, 193, 193)">socal pop punk</text>
<text transform="translate(1069,445)" font-size="21" style="fill:rgb(110, 110, 110)">kent indie</text>
<text transform="translate(407,902)" font-size="21" style="fill:rgb(0, 0, 0)">modern alternative rock</text>
<text transform="translate(858,335)" font-size="21" style="fill:rgb(0, 0, 0)">german metal</text>
<text transform="translate(905,297)" font-size="21" style="fill:rgb(0, 0, 0)">industrial</text>
<text transform="translate(630,1117)" font-size="21" style="fill:rgb(6, 6, 6)">industrial metal</text>
<text transform="translate(922,362)" font-size="21" style="fill:rgb(47, 47, 47)">industrial rock</text>
<text transform="translate(334,1000)" font-size="21" style="fill:rgb(99, 99, 99)">neue deutsche harte</text>
<text transform="translate(581,1203)" font-size="21" style="fill:rgb(119, 119, 119)">japanese chillhop</text>
<text transform="translate(859,268)" font-size="21" style="fill:rgb(0, 0, 0)">chillhop</text>
<text transform="translate(805,856) rotate(-90)" font-size="21" style="fill:rgb(113, 113, 113)">east coast hip hop</text>
<text transform="translate(388,924)" font-size="21" style="fill:rgb(0, 0, 0)">gangster rap</text>
<text transform="translate(836,417)" font-size="21" style="fill:rgb(0, 0, 0)">pop rap</text>
<text transform="translate(504,1275)" font-size="21" style="fill:rgb(211, 211, 211)">queens hip hop</text>
  <defs
     id="defs1056" />
  <metadata
     id="metadata1059">
    </metadata>
  <g
     id="layer1"
     transform="matrix(1.0144007,0,0,1.0144007,-1240.2766,-289.16834)">
    <path
       id="path1760"
       style="fill:none;stroke:#000000;stroke-width:10.83595467;stroke-linecap:butt;stroke-linejoin:miter;stroke-miterlimit:4;stroke-dasharray:none;stroke-opacity:1"
       d="m 2122.9863,410.75586 c -11.1174,0.16111 -22.2466,1.088 -33.1747,3.17251 -12.5163,2.90051 -23.9799,9.26328 -34.1173,17.029 -8.2871,6.4561 -15.425,14.647 -19.6376,24.34287 -3.6015,7.43007 -6.8143,15.18026 -8.0083,23.40365 -3.4202,18.28956 -5.6896,36.76545 -8.374,55.17132 -14.5591,105.27216 -27.7424,210.73001 -41.1667,316.15094 -9.3295,74.02292 -18.5827,148.05539 -27.7792,222.09495 -17.697,-9.7262 -36.3989,-17.5706 -55.5867,-23.8334 -46.4436,-14.8226 -96.6462,-18.5092 -144.5499,-8.9758 -37.0318,7.2592 -72.4866,21.8143 -104.5191,41.6793 -17.1377,10.6474 -33.4559,22.7067 -48.1153,36.5961 -21.5075,20.3183 -39.5608,44.3763 -52.494,71.0142 -10.4277,21.438 -17.4239,44.4782 -21.3312,67.9749 -4.5184,27.1931 -4.8576,54.9907 -1.9838,82.3778 1.1057,10.7631 2.6417,21.4778 4.3653,32.1581 1.4338,8.4243 3.472,16.7365 5.7913,24.9573 2.6024,9.0801 5.8943,17.9693 10.0178,26.4717 14.2034,30.5306 34.5171,57.918 57.8264,82.0955 16.1968,16.9001 34.1804,32.1517 53.9129,44.779 27.167,17.4901 57.4773,30.186 89.1381,36.7403 30.9801,6.5158 63.0111,7.4788 94.4273,3.8843 19.2987,-2.1528 38.4503,-5.8176 57.0877,-11.2923 12.8962,-3.9568 25.6592,-8.4226 37.9919,-13.9046 15.1567,-6.7865 29.4958,-15.2971 43.0792,-24.8278 9.9888,-6.8512 20.1638,-13.5794 28.9196,-22.011 11.5732,-10.9659 21.438,-23.5962 30.4494,-36.7101 13.0966,-19.3988 23.8309,-40.2744 33.6816,-61.4706 6.3012,-14.0227 10.5431,-28.8352 15.0649,-43.494 1.6809,-5.8455 3.0487,-11.7412 4.546,-17.6228 2.2604,-9.197 4.231,-18.4836 5.3184,-27.9003 7.5608,-56.8147 14.6487,-113.6922 21.8555,-170.5516 11.9266,-94.9661 23.7135,-189.94954 35.4496,-284.93932 7.8733,-63.78224 15.7271,-127.56697 23.5692,-191.35309 46.6302,47.7761 93.2608,95.55174 139.8906,143.32813 16.0344,10.92145 35.0824,17.75815 54.5626,18.1914 19.5909,0.40794 39.148,-7.08726 53.6347,-20.24483 12.2944,-10.78624 22.0277,-24.78391 26.6113,-40.57157 4.2399,-14.57697 3.7321,-30.32652 -0.5641,-44.82873 -2.7981,-9.41402 -6.9553,-18.42281 -12.2357,-26.70038 -3.0512,-4.74488 -6.5168,-9.24277 -10.5521,-13.19587 -14.4101,-14.81737 -28.8936,-29.55449 -43.3398,-44.34138 -75.3361,-76.99581 -150.6648,-153.99923 -226.0055,-230.99028 -9.0526,-8.45944 -21.1842,-13.81748 -33.6563,-13.85352 z" />
  </g>
</svg>
