<?xml version="1.0" encoding="UTF-8" standalone="no"?>
<svg
   xmlns:svg="http://www.w3.org/2000/svg"
   xmlns="http://www.w3.org/2000/svg"
   width="1500"
   height="1500"
   viewBox="0 0 972 1224"
   version="1.1"
   id="svg1062"
   >
  <style>text{font-family:'Droid Sans Mono';font-weight:normal;font-style:normal;}</style>
<rect width="100%" height="100%" style="fill:rgba(255,255,255,0)"></rect>
<text transform="translate(163,977)" font-size="62" style="fill:rgb(53, 53, 53)">lo-fi beats</text>
<text transform="translate(175,752)" font-size="40" style="fill:rgb(0, 0, 0)">alternative emo</text>
<text transform="translate(229,849)" font-size="35" style="fill:rgb(0, 0, 0)">anthem emo</text>
<text transform="translate(444,805)" font-size="35" style="fill:rgb(0, 0, 0)">emo</text>
<text transform="translate(553,234)" font-size="29" style="fill:rgb(0, 0, 0)">pop punk</text>
<text transform="translate(721,272) rotate(-90)" font-size="29" style="fill:rgb(107, 107, 107)">hip hop</text>
<text transform="translate(125,820)" font-size="29" style="fill:rgb(0, 0, 0)">rap</text>
<text transform="translate(579,698) rotate(-90)" font-size="29" style="fill:rgb(148, 148, 148)">alternative metal</text>
<text transform="translate(312,876)" font-size="29" style="fill:rgb(0, 0, 0)">nu metal</text>
<text transform="translate(240,916)" font-size="22" style="fill:rgb(0, 0, 0)">bubblegrunge</text>
<text transform="translate(782,293)" font-size="22" style="fill:rgb(0, 0, 0)">diy emo</text>
<text transform="translate(278,1081)" font-size="22" style="fill:rgb(9, 9, 9)">indie punk</text>
<text transform="translate(190,1137)" font-size="22" style="fill:rgb(137, 137, 137)">english indie rock</text>
<text transform="translate(187,813)" font-size="22" style="fill:rgb(0, 0, 0)">manchester indie</text>
<text transform="translate(87,1005)" font-size="22" style="fill:rgb(127, 127, 127)">detroit hip hop</text>
<text transform="translate(305,1052)" font-size="22" style="fill:rgb(0, 0, 0)">midwest emo</text>
<text transform="translate(360,1013)" font-size="22" style="fill:rgb(0, 0, 0)">socal pop punk</text>
<text transform="translate(805,383)" font-size="22" style="fill:rgb(170, 170, 170)">kent indie</text>
<text transform="translate(214,770)" font-size="22" style="fill:rgb(0, 0, 0)">modern alternative rock</text>
<text transform="translate(558,910) rotate(-90)" font-size="22" style="fill:rgb(152, 152, 152)">german metal</text>
<text transform="translate(563,199)" font-size="22" style="fill:rgb(0, 0, 0)">industrial</text>
<text transform="translate(212,789)" font-size="22" style="fill:rgb(0, 0, 0)">industrial metal</text>
<text transform="translate(73,883)" font-size="22" style="fill:rgb(5, 5, 5)">industrial rock</text>
<text transform="translate(222,1107)" font-size="22" style="fill:rgb(85, 85, 85)">neue deutsche harte</text>
<text transform="translate(202,711)" font-size="22" style="fill:rgb(0, 0, 0)">japanese chillhop</text>
<text transform="translate(58,955)" font-size="22" style="fill:rgb(21, 21, 21)">chillhop</text>
<text transform="translate(92,1036)" font-size="22" style="fill:rgb(149, 149, 149)">electro house</text>
<text transform="translate(304,893)" font-size="22" style="fill:rgb(0, 0, 0)">east coast hip hop</text>
<text transform="translate(81,910)" font-size="22" style="fill:rgb(0, 0, 0)">gangster rap</text>
<text transform="translate(530,351)" font-size="22" style="fill:rgb(0, 0, 0)">pop rap</text>
<text transform="translate(234,1160)" font-size="22" style="fill:rgb(128, 128, 128)">queens hip hop</text>
  <defs
     id="defs1056" />
  <metadata
     id="metadata1059">
    </metadata>
  <g
     id="layer1"
     transform="matrix(1.0144286,0,0,1.0095811,-1521.3192,-393.87369)">
    <path
       id="path1760"
       style="fill:none;stroke:#000000;stroke-width:10.836;stroke-linecap:butt;stroke-linejoin:miter;stroke-miterlimit:4;stroke-dasharray:none;stroke-opacity:1"
       d="m 2122.9863,410.75586 c -11.1174,0.16111 -22.2466,1.088 -33.1747,3.17251 -12.5163,2.90051 -23.9799,9.26328 -34.1173,17.029 -8.2871,6.4561 -15.425,14.647 -19.6376,24.34287 -3.6015,7.43007 -6.8143,15.18026 -8.0083,23.40365 -3.4202,18.28956 -5.6896,36.76545 -8.374,55.17132 -14.5591,105.27216 -27.7424,210.73001 -41.1667,316.15094 -9.3295,74.02292 -18.5827,148.05539 -27.7792,222.09495 -17.697,-9.7262 -36.3989,-17.5706 -55.5867,-23.8334 -46.4436,-14.8226 -96.6462,-18.5092 -144.5499,-8.9758 -37.0318,7.2592 -72.4866,21.8143 -104.5191,41.6793 -17.1377,10.6474 -33.4559,22.7067 -48.1153,36.5961 -21.5075,20.3183 -39.5608,44.3763 -52.494,71.0142 -10.4277,21.438 -17.4239,44.4782 -21.3312,67.9749 -4.5184,27.1931 -4.8576,54.9907 -1.9838,82.3778 1.1057,10.7631 2.6417,21.4778 4.3653,32.1581 1.4338,8.4243 3.472,16.7365 5.7913,24.9573 2.6024,9.0801 5.8943,17.9693 10.0178,26.4717 14.2034,30.5306 34.5171,57.918 57.8264,82.0955 16.1968,16.9001 34.1804,32.1517 53.9129,44.779 27.167,17.4901 57.4773,30.186 89.1381,36.7403 30.9801,6.5158 63.0111,7.4788 94.4273,3.8843 19.2987,-2.1528 38.4503,-5.8176 57.0877,-11.2923 12.8962,-3.9568 25.6592,-8.4226 37.9919,-13.9046 15.1567,-6.7865 29.4958,-15.2971 43.0792,-24.8278 9.9888,-6.8512 20.1638,-13.5794 28.9196,-22.011 11.5732,-10.9659 21.438,-23.5962 30.4494,-36.7101 13.0966,-19.3988 23.8309,-40.2744 33.6816,-61.4706 6.3012,-14.0227 10.5431,-28.8352 15.0649,-43.494 1.6809,-5.8455 3.0487,-11.7412 4.546,-17.6228 2.2604,-9.197 4.231,-18.4836 5.3184,-27.9003 7.5608,-56.8147 14.6487,-113.6922 21.8555,-170.5516 11.9266,-94.9661 23.7135,-189.94954 35.4496,-284.93932 7.8733,-63.78224 15.7271,-127.56697 23.5692,-191.35309 46.6302,47.7761 93.2608,95.55174 139.8906,143.32813 16.0344,10.92145 35.0824,17.75815 54.5626,18.1914 19.5909,0.40794 39.148,-7.08726 53.6347,-20.24483 12.2944,-10.78624 22.0277,-24.78391 26.6113,-40.57157 4.2399,-14.57697 3.7321,-30.32652 -0.5641,-44.82873 -2.7981,-9.41402 -6.9553,-18.42281 -12.2357,-26.70038 -3.0512,-4.74488 -6.5168,-9.24277 -10.5521,-13.19587 -14.4101,-14.81737 -28.8936,-29.55449 -43.3398,-44.34138 -75.3361,-76.99581 -150.6648,-153.99923 -226.0055,-230.99028 -9.0526,-8.45944 -21.1842,-13.81748 -33.6563,-13.85352 z" />
  </g>
</svg>
