<?xml version="1.0" encoding="UTF-8" standalone="no"?>
<svg
   xmlns:svg="http://www.w3.org/2000/svg"
   xmlns="http://www.w3.org/2000/svg"
   width="1500"
   height="1500"
   viewBox="0 0 1500 1500"
   version="1.1"
   id="svg1062"
   >

   <style>text{font-family:'Droid Sans Mono';font-weight:normal;font-style:normal;}</style>
<rect width="100%" height="100%" style="fill:white"></rect>
<text transform="translate(333,1087)" font-size="62" style="fill:rgb(177, 177, 177)">lo-fi beats</text>
<text transform="translate(399,981)" font-size="39" style="fill:rgb(49, 49, 49)">alternative emo</text>
<text transform="translate(357,942)" font-size="34" style="fill:rgb(0, 0, 0)">anthem emo</text>
<text transform="translate(629,1020)" font-size="28" style="fill:rgb(0, 0, 0)">pop punk</text>
<text transform="translate(683,846)" font-size="28" style="fill:rgb(0, 0, 0)">hip hop</text>
<text transform="translate(641,1136)" font-size="28" style="fill:rgb(0, 0, 0)">rap</text>
<text transform="translate(421,1176)" font-size="28" style="fill:rgb(172, 172, 172)">alternative metal</text>
<text transform="translate(388,903)" font-size="28" style="fill:rgb(0, 0, 0)">nu metal</text>
<text transform="translate(328,1014)" font-size="21" style="fill:rgb(50, 50, 50)">bubblegrunge</text>
<text transform="translate(882,802) rotate(-90)" font-size="21" style="fill:rgb(143, 143, 143)">diy emo</text>
<text transform="translate(811,407)" font-size="21" style="fill:rgb(0, 0, 0)">indie punk</text>
<text transform="translate(992,387)" font-size="21" style="fill:rgb(165, 165, 165)">nordic folk</text>
<text transform="translate(808,457)" font-size="21" style="fill:rgb(0, 0, 0)">rune folk</text>
<text transform="translate(478,1225)" font-size="21" style="fill:rgb(124, 124, 124)">viking folk</text>
<text transform="translate(565,920)" font-size="21" style="fill:rgb(0, 0, 0)">english indie rock</text>
<text transform="translate(509,998)" font-size="21" style="fill:rgb(0, 0, 0)">manchester indie</text>
<text transform="translate(420,854)" font-size="21" style="fill:rgb(0, 0, 0)">detroit hip hop</text>
<text transform="translate(567,895)" font-size="21" style="fill:rgb(0, 0, 0)">houston indie</text>
<text transform="translate(850,690) rotate(-90)" font-size="21" style="fill:rgb(87, 87, 87)">midwest emo</text>
<text transform="translate(886,305)" font-size="21" style="fill:rgb(0, 0, 0)">socal pop punk</text>
<text transform="translate(655,1216)" font-size="21" style="fill:rgb(67, 67, 67)">kent indie</text>
<text transform="translate(413,1115)" font-size="21" style="fill:rgb(131, 131, 131)">modern alternative rock</text>
<text transform="translate(458,1251)" font-size="21" style="fill:rgb(194, 194, 194)">german metal</text>
<text transform="translate(753,876)" font-size="21" style="fill:rgb(0, 0, 0)">industrial</text>
<text transform="translate(477,814)" font-size="21" style="fill:rgb(0, 0, 0)">industrial metal</text>
<text transform="translate(627,954)" font-size="21" style="fill:rgb(0, 0, 0)">industrial rock</text>
<text transform="translate(394,1202)" font-size="21" style="fill:rgb(216, 216, 216)">neue deutsche harte</text>
<text transform="translate(853,357)" font-size="21" style="fill:rgb(0, 0, 0)">japanese chillhop</text>
<text transform="translate(756,892)" font-size="21" style="fill:rgb(0, 0, 0)">chillhop</text>
<text transform="translate(362,1141)" font-size="21" style="fill:rgb(184, 184, 184)">east coast hip hop</text>
<text transform="translate(876,276)" font-size="21" style="fill:rgb(0, 0, 0)">gangster rap</text>
<text transform="translate(541,1276)" font-size="21" style="fill:rgb(157, 157, 157)">pop rap</text>
<text transform="translate(904,330)" font-size="21" style="fill:rgb(0, 0, 0)">queens hip hop</text>

  <defs
     id="defs1056" />
  <metadata
     id="metadata1059">
    </metadata>
  <g
     id="layer1">
    <path
       id="path1760"
       style="fill:none;stroke:#000000;stroke-width:10.7373;stroke-linecap:butt;stroke-linejoin:miter;stroke-miterlimit:4;stroke-dasharray:none;stroke-opacity:1"
       d="m 758.2316,827.14333 c -18.34439,-13.14915 -38.7647,-23.16844 -59.75979,-31.31762 -46.06132,-17.5768 -96.83831,-23.49044 -145.51136,-14.91078 -47.28676,8.19422 -91.91425,29.14446 -129.9877,58.13179 -31.10656,23.91824 -56.87025,55.25937 -72.30816,91.47285 -15.82393,36.59101 -21.15596,77.11223 -18.79329,116.73203 0.86425,16.4374 3.33806,32.7378 5.86713,48.9823 0.42561,1.095 -0.28105,-2.4738 -0.10338,-0.4082 2.49219,11.4604 5.20563,22.9379 9.42857,33.9026 14.02792,34.5676 36.56587,65.1257 62.72206,91.4919 24.22971,24.7292 53.08689,45.0534 84.99291,58.6048 34.60477,14.8187 72.60307,21.0057 110.14116,19.6341 24.29588,-0.8522 48.47715,-4.5456 71.99765,-10.655 7.97459,-2.3426 15.94283,-4.7275 23.70936,-7.7022 17.09308,-5.89 33.43863,-13.9048 48.5555,-23.8219 8.84589,-5.7827 17.51956,-11.8294 26.12839,-17.9566 15.02017,-11.3582 26.97574,-26.1952 37.70955,-41.5291 12.44252,-18.2845 22.63785,-37.9889 32.05611,-57.9664 6.72813,-14.4597 10.51232,-28.6575 15.35849,-43.8646 2.9023,-11.7316 6.48089,-24.3166 8.25591,-36.2473 8.00269,-59.2491 15.29735,-118.59053 22.83205,-177.90007 21.39894,-170.4391 42.40075,-340.92774 63.32458,-511.42569 l 164.35046,168.3836 c 13.3095,8.77594 29.0737,14.26076 45.1037,14.24408 13.3807,-0.11958 26.6626,-4.858 37.0219,-13.34634 11.5791,-9.18545 20.9019,-21.73194 24.7113,-36.14018 3.5243,-13.60544 1.7218,-28.20041 -3.6368,-41.0805 -3.1178,-7.74876 -7.3355,-15.06282 -12.5567,-21.58607 L 937.95851,162.93562 c -6.80434,-6.38726 -14.63233,-8.93568 -20.499,-9.16252 -9.12566,-0.11167 -18.23443,0.88194 -27.26479,2.05928 -8.40043,1.41394 -15.97094,4.88675 -22.5994,9.04492 -8.18849,5.00247 -15.53884,11.12914 -20.39444,19.48762 -3.01123,6.61221 -6.20378,12.13924 -7.71205,19.25282 -3.21982,15.7914 -5.11952,31.80916 -7.51501,47.73651 -14.79496,105.99465 -28.04887,212.1957 -41.57912,318.35687 -10.84082,85.79571 -21.554,171.60753 -32.16298,257.43221 z"
       />
  </g>
</svg>
