<?xml version="1.0" encoding="UTF-8" standalone="no"?>
<svg
   xmlns:svg="http://www.w3.org/2000/svg"
   xmlns="http://www.w3.org/2000/svg"
   width="1500"
   height="1500"
   viewBox="0 0 1500 1500"
   version="1.1"
   id="svg1062"
   >

   <style>text{font-family:'Droid Sans Mono';font-weight:normal;font-style:normal;}</style>
<rect width="100%" height="100%" style="fill:white"></rect>
<text transform="translate(374,984)" font-size="62" style="fill:rgb(78, 78, 78)">lo-fi beats</text>
<text transform="translate(447,1144)" font-size="40" style="fill:rgb(145, 145, 145)">alternative emo</text>
<text transform="translate(479,1038)" font-size="35" style="fill:rgb(0, 0, 0)">anthem emo</text>
<text transform="translate(482,834)" font-size="29" style="fill:rgb(0, 0, 0)">pop punk</text>
<text transform="translate(504,888)" font-size="29" style="fill:rgb(0, 0, 0)">hip hop</text>
<text transform="translate(795,679)" font-size="29" style="fill:rgb(0, 0, 0)">rap</text>
<text transform="translate(544,1071)" font-size="29" style="fill:rgb(40, 40, 40)">alternative metal</text>
<text transform="translate(583,1196)" font-size="29" style="fill:rgb(21, 21, 21)">nu metal</text>
<text transform="translate(638,844)" font-size="22" style="fill:rgb(0, 0, 0)">bubblegrunge</text>
<text transform="translate(481,1267)" font-size="22" style="fill:rgb(168, 168, 168)">diy emo</text>
<text transform="translate(337,1008)" font-size="22" style="fill:rgb(1, 1, 1)">indie punk</text>
<text transform="translate(886,430) rotate(-90)" font-size="22" style="fill:rgb(0, 0, 0)">nordic folk</text>
<text transform="translate(695,885)" font-size="22" style="fill:rgb(0, 0, 0)">rune folk</text>
<text transform="translate(429,1165)" font-size="22" style="fill:rgb(69, 69, 69)">viking folk</text>
<text transform="translate(865,797) rotate(-90)" font-size="22" style="fill:rgb(173, 173, 173)">english indie rock</text>
<text transform="translate(493,926)" font-size="22" style="fill:rgb(0, 0, 0)">manchester indie</text>
<text transform="translate(427,1098)" font-size="22" style="fill:rgb(34, 34, 34)">detroit hip hop</text>
<text transform="translate(639,903)" font-size="22" style="fill:rgb(0, 0, 0)">houston indie</text>
<text transform="translate(618,1239)" font-size="22" style="fill:rgb(119, 119, 119)">midwest emo</text>
<text transform="translate(580,1163)" font-size="22" style="fill:rgb(41, 41, 41)">socal pop punk</text>
<text transform="translate(700,1035)" font-size="22" style="fill:rgb(0, 0, 0)">kent indie</text>
<text transform="translate(548,1011)" font-size="22" style="fill:rgb(0, 0, 0)">modern alternative rock</text>
<text transform="translate(335,1059)" font-size="22" style="fill:rgb(97, 97, 97)">german metal</text>
<text transform="translate(916,354)" font-size="22" style="fill:rgb(0, 0, 0)">industrial</text>
<text transform="translate(446,1215)" font-size="22" style="fill:rgb(176, 176, 176)">industrial metal</text>
<text transform="translate(840,655) rotate(-90)" font-size="22" style="fill:rgb(107, 107, 107)">industrial rock</text>
<text transform="translate(907,490) rotate(-90)" font-size="22" style="fill:rgb(117, 117, 117)">neue deutsche harte</text>
<text transform="translate(626,1090)" font-size="22" style="fill:rgb(0, 0, 0)">japanese chillhop</text>
<text transform="translate(396,882)" font-size="22" style="fill:rgb(0, 0, 0)">chillhop</text>
<text transform="translate(851,451) rotate(-90)" font-size="22" style="fill:rgb(74, 74, 74)">east coast hip hop</text>
<text transform="translate(1016,421)" font-size="22" style="fill:rgb(185, 185, 185)">gangster rap</text>
<text transform="translate(1108,444)" font-size="22" style="fill:rgb(0, 0, 0)">pop rap</text>
<text transform="translate(664,1112)" font-size="22" style="fill:rgb(0, 0, 0)">queens hip hop</text>

  <defs
     id="defs1056" />
  <metadata
     id="metadata1059">
    </metadata>
  <g
     id="layer1">
    <path
       id="path1760"
       style="fill:none;stroke:#000000;stroke-width:10.7373;stroke-linecap:butt;stroke-linejoin:miter;stroke-miterlimit:4;stroke-dasharray:none;stroke-opacity:1"
       d="m 758.2316,827.14333 c -18.34439,-13.14915 -38.7647,-23.16844 -59.75979,-31.31762 -46.06132,-17.5768 -96.83831,-23.49044 -145.51136,-14.91078 -47.28676,8.19422 -91.91425,29.14446 -129.9877,58.13179 -31.10656,23.91824 -56.87025,55.25937 -72.30816,91.47285 -15.82393,36.59101 -21.15596,77.11223 -18.79329,116.73203 0.86425,16.4374 3.33806,32.7378 5.86713,48.9823 0.42561,1.095 -0.28105,-2.4738 -0.10338,-0.4082 2.49219,11.4604 5.20563,22.9379 9.42857,33.9026 14.02792,34.5676 36.56587,65.1257 62.72206,91.4919 24.22971,24.7292 53.08689,45.0534 84.99291,58.6048 34.60477,14.8187 72.60307,21.0057 110.14116,19.6341 24.29588,-0.8522 48.47715,-4.5456 71.99765,-10.655 7.97459,-2.3426 15.94283,-4.7275 23.70936,-7.7022 17.09308,-5.89 33.43863,-13.9048 48.5555,-23.8219 8.84589,-5.7827 17.51956,-11.8294 26.12839,-17.9566 15.02017,-11.3582 26.97574,-26.1952 37.70955,-41.5291 12.44252,-18.2845 22.63785,-37.9889 32.05611,-57.9664 6.72813,-14.4597 10.51232,-28.6575 15.35849,-43.8646 2.9023,-11.7316 6.48089,-24.3166 8.25591,-36.2473 8.00269,-59.2491 15.29735,-118.59053 22.83205,-177.90007 21.39894,-170.4391 42.40075,-340.92774 63.32458,-511.42569 l 164.35046,168.3836 c 13.3095,8.77594 29.0737,14.26076 45.1037,14.24408 13.3807,-0.11958 26.6626,-4.858 37.0219,-13.34634 11.5791,-9.18545 20.9019,-21.73194 24.7113,-36.14018 3.5243,-13.60544 1.7218,-28.20041 -3.6368,-41.0805 -3.1178,-7.74876 -7.3355,-15.06282 -12.5567,-21.58607 L 937.95851,162.93562 c -6.80434,-6.38726 -14.63233,-8.93568 -20.499,-9.16252 -9.12566,-0.11167 -18.23443,0.88194 -27.26479,2.05928 -8.40043,1.41394 -15.97094,4.88675 -22.5994,9.04492 -8.18849,5.00247 -15.53884,11.12914 -20.39444,19.48762 -3.01123,6.61221 -6.20378,12.13924 -7.71205,19.25282 -3.21982,15.7914 -5.11952,31.80916 -7.51501,47.73651 -14.79496,105.99465 -28.04887,212.1957 -41.57912,318.35687 -10.84082,85.79571 -21.554,171.60753 -32.16298,257.43221 z"
       />
  </g>
</svg>
