<?xml version="1.0" encoding="UTF-8" standalone="no"?>
<svg
   xmlns:svg="http://www.w3.org/2000/svg"
   xmlns="http://www.w3.org/2000/svg"
   width="1500"
   height="1500"
   viewBox="0 0 396.87499 396.87501"
   version="1.1"
   id="svg8"
   >
  <defs
     id="defs2" />
  <metadata
     id="metadata5">
    </metadata>
  <g
     id="layer1">
    <path
       id="path24"
       style="fill:#000000;stroke:#000000;stroke-width:2.46048;stroke-miterlimit:4;stroke-dasharray:none;stroke-opacity:1"
       d="m 150.98931,345.88209 c -21.24982,-2.39485 -41.6166,-13.25881 -53.56451,-31.23287 -20.359511,-28.27549 -14.482673,-71.3535 12.72479,-93.21593 20.95745,-17.66101 51.71303,-21.28973 76.66561,-10.34734 7.20833,3.75748 13.09833,8.80911 14.10877,-2.22573 7.07124,-52.53148 13.39673,-105.15914 20.10958,-157.736792 3.24072,-12.375459 23.98084,-15.470876 37.93457,0.600421 21.1744,22.578397 42.93652,44.820538 63.81842,67.452061 9.71734,13.93924 -6.41318,33.65656 -22.11488,27.21139 -13.12242,-7.34504 -21.65639,-20.82183 -32.49854,-31.01809 -5.92199,-4.71858 -18.32007,-25.447824 -17.56615,-6.16389 -7.91977,61.7473 -15.52599,123.59757 -23.59207,185.35062 -7.52859,26.76648 -31.63081,47.68054 -59.32669,50.74636 -5.52346,1.01638 -11.13459,0.25858 -16.6989,0.57979 z m 2.71621,-0.70876 c 30.89982,2.3221 61.84339,-17.83034 71.43148,-47.41472 4.92963,-21.20435 5.83764,-43.19667 9.18321,-64.70784 5.70854,-45.13891 11.40373,-90.27952 17.10714,-135.419035 15.92129,14.217545 29.30512,31.358705 45.09464,45.779635 11.93345,9.74127 31.82724,-2.74886 27.9688,-17.65627 -5.53555,-13.95851 -19.61035,-22.67965 -28.85821,-34.289469 -15.98226,-16.175428 -30.18638,-34.349617 -46.91355,-48.179552 -10.58524,-6.363194 -28.82675,0.934169 -27.63074,12.626051 -7.00572,54.23009 -13.64758,108.53555 -20.75941,162.76399 -11.4092,-5.83357 -23.14412,-11.69589 -36.17857,-12.87793 -27.61882,-2.88629 -56.67942,11.35538 -69.783101,36.13565 -14.517365,25.29339 -10.037812,59.25112 10.180771,80.20786 12.43709,13.73995 30.67287,22.25067 49.15754,23.03163 z"
       />
  </g>
</svg>
