<?xml version="1.0" encoding="UTF-8" standalone="no"?>
<svg
   xmlns:dc="http://purl.org/dc/elements/1.1/"
   xmlns:cc="http://creativecommons.org/ns#"
   xmlns:rdf="http://www.w3.org/1999/02/22-rdf-syntax-ns#"
   xmlns:svg="http://www.w3.org/2000/svg"
   xmlns="http://www.w3.org/2000/svg"
   xmlns:sodipodi="http://sodipodi.sourceforge.net/DTD/sodipodi-0.dtd"
   xmlns:inkscape="http://www.inkscape.org/namespaces/inkscape"
   version="1.1"
   id="svg833"
   width="1500"
   height="1500"
   viewBox="0 0 1500 1500"
   sodipodi:docname="artists.svg"
   inkscape:version="1.0.2 (e86c870, 2021-01-15)">
  <sodipodi:namedview
     pagecolor="#ffffff"
     bordercolor="#666666"
     borderopacity="1"
     objecttolerance="10"
     gridtolerance="10"
     guidetolerance="10"
     inkscape:pageopacity="0"
     inkscape:pageshadow="2"
     inkscape:window-width="1920"
     inkscape:window-height="1013"
     id="namedview67"
     showgrid="false"
     inkscape:zoom="0.40116525"
     inkscape:cx="292.29057"
     inkscape:cy="632.81336"
     inkscape:window-x="0"
     inkscape:window-y="30"
     inkscape:window-maximized="1"
     inkscape:current-layer="layer2"
     inkscape:document-rotation="0" />
  <style
     id="style2">text{font-family:'Droid Sans Mono';font-weight:normal;font-style:normal;}</style>
  <text
     transform="rotate(5.9131192)"
     font-size="93px"
     style="fill:#6a6a6a"
     id="text6"
     x="706.08502"
     y="259.03448">Charmer</text>
  <text
     transform="rotate(-84.086881)"
     font-size="93px"
     style="fill:#c9c9c9"
     id="text8"
     x="-1062.0344"
     y="581.08502">Bay Faction</text>
  <text
     transform="rotate(5.9131192)"
     font-size="93px"
     style="fill:#070707"
     id="text10"
     x="555.08502"
     y="340.03448">Wardruna</text>
  <text
     font-size="36.5218px"
     style="fill:#878787;stroke-width:0.830041"
     id="text12"
     x="894.50439"
     y="188.83098"
     transform="rotate(5.9131192)">Chappaqua Wrestling</text>
  <text
     transform="rotate(5.9131192)"
     font-size="44px"
     style="fill:#000000"
     id="text14"
     x="1010.085"
     y="930.03448">Eminem</text>
  <text
     transform="rotate(5.9131192)"
     font-size="44px"
     style="fill:#545454"
     id="text16"
     x="1062.085"
     y="1035.0344">Many Rooms</text>
  <text
     transform="rotate(5.9131192)"
     font-size="44px"
     style="fill:#808080"
     id="text18"
     x="315.08502"
     y="1260.0344">Movements</text>
  <text
     transform="rotate(5.9131192)"
     font-size="44px"
     style="fill:#656565"
     id="text20"
     x="306.08502"
     y="1205.0344">Moose Blood</text>
  <text
     transform="rotate(-84.086881)"
     font-size="44px"
     style="fill:#9b9b9b"
     id="text22"
     x="-653.00543"
     y="1273.0559">Avenged Sevenfold</text>
  <text
     transform="rotate(5.9131192)"
     font-size="44px"
     style="fill:#1a1a1a"
     id="text24"
     x="319.08502"
     y="1146.0344">Rammstein</text>
  <text
     transform="rotate(5.9131192)"
     font-size="44px"
     style="fill:#000000"
     id="text26"
     x="394.08502"
     y="1090.0344">softy</text>
  <text
     transform="rotate(5.9131192)"
     font-size="44px"
     style="fill:#000000"
     id="text28"
     x="953.08502"
     y="1006.0345">ENRA</text>
  <text
     font-size="44px"
     style="fill:#2e2e2e"
     id="text30"
     x="583.91125"
     y="390.52722"
     transform="rotate(5.9131192)">Trxxshed</text>
  <text
     font-size="44px"
     style="fill:#000000"
     id="text32"
     x="1088.0704"
     y="878.75909"
     transform="rotate(5.9131192)">Dontcry</text>
  <text
     transform="rotate(5.9131192)"
     font-size="44px"
     style="fill:#868686"
     id="text34"
     x="917.08502"
     y="1068.0344">Yasumu</text>
  <text
     transform="rotate(5.9131192)"
     font-size="44px"
     style="fill:#9a9a9a"
     id="text36"
     x="1013.085"
     y="1112.0344">brillion.</text>
  <text
     transform="rotate(5.9131192)"
     font-size="44px"
     style="fill:#2b2b2b"
     id="text38"
     x="1064.085"
     y="974.03448">less.people</text>
  <text
     transform="rotate(5.9131192)"
     font-size="44px"
     style="fill:#8b8b8b"
     id="text40"
     x="1007.085"
     y="306.03448">S N U G</text>
  <text
     font-size="37.5214px"
     style="fill:#000000;stroke-width:0.852759"
     id="text42"
     x="1235.8253"
     y="761.59052"
     transform="rotate(5.9131192)">Jhove</text>
  <text
     transform="rotate(-84.086881)"
     font-size="44px"
     style="fill:#cfcfcf"
     id="text44"
     x="-768.03448"
     y="618.08502">Mondo Loops</text>
  <text
     transform="rotate(-84.086881)"
     font-size="44px"
     style="fill:#b7b7b7"
     id="text46"
     x="-709.80261"
     y="1333.7805">Dillan Witherow</text>
  <text
     transform="rotate(5.9131192)"
     font-size="44px"
     style="fill:#909090"
     id="text48"
     x="1039.085"
     y="1152.0344">Monma</text>
  <text
     transform="rotate(5.9131192)"
     font-size="44px"
     style="fill:#000000"
     id="text50"
     x="351.08502"
     y="1044.0344">Casiio</text>
  <text
     font-size="44px"
     style="fill:#000000"
     id="text52"
     x="1149.0123"
     y="136.77357"
     transform="rotate(5.9131192)">Laffey</text>
  <text
     font-size="44px"
     style="fill:#000000"
     id="text54"
     x="247.07048"
     y="1084.5272"
     transform="rotate(5.9131192)">Kupla</text>
  <text
     font-size="44px"
     style="fill:#000000"
     id="text56"
     x="514.79504"
     y="271.2518"
     transform="rotate(5.9131192)">50 Cent</text>
  <text
     transform="rotate(5.9131192)"
     font-size="44px"
     style="fill:#000000"
     id="text58"
     x="240.08501"
     y="1132.0344">WYS</text>
  <text
     transform="rotate(5.9131192)"
     font-size="39px"
     style="fill:#a6a6a6"
     id="text60"
     x="276.08502"
     y="1290.0344">Ky akasha</text>
  <metadata
     id="metadata839">
    <rdf:RDF>
      <cc:Work
         rdf:about="">
        <dc:format>image/svg+xml</dc:format>
        <dc:type
           rdf:resource="http://purl.org/dc/dcmitype/StillImage" />
      </cc:Work>
    </rdf:RDF>
  </metadata>
  <defs
     id="defs837" />
  <g
     inkscape:groupmode="layer"
     id="layer2"
     inkscape:label="Layer 2">
    <path
       sodipodi:type="spiral"
       style="opacity:0.764463;fill:none;fill-rule:evenodd;stroke:#000000;stroke-width:3.8;stroke-miterlimit:4;stroke-dasharray:none"
       id="path213"
       sodipodi:cx="1242.0833"
       sodipodi:cy="-1285.6509"
       sodipodi:expansion="1"
       sodipodi:revolution="3"
       sodipodi:radius="110.69555"
       sodipodi:argument="-17.904245"
       sodipodi:t0="0"
       d="m 1242.0833,-1285.6509 c 3.2495,4.4994 -4.4619,6.6001 -7.4783,5.401 -8.1742,-3.2498 -7.7856,-14.3286 -3.3236,-20.3574 7.9814,-10.7841 24.002,-9.6143 33.2365,-1.2464 13.552,12.2802 11.5208,33.8152 -0.8309,46.1157 -16.4629,16.3945 -43.6792,13.462 -58.9948,-2.9082 -19.2731,-20.6002 -15.4214,-53.5676 4.9854,-71.8739 24.7154,-22.1715 63.4699,-17.3914 84.7531,7.0626 25.0816,28.8183 19.368,73.3808 -9.1399,97.6323 -32.9136,27.9993 -83.2975,21.349 -110.5114,-11.2172 -30.9223,-37.0039 -23.3332,-93.2182 13.2945,-123.3906 41.0907,-33.8489 103.1417,-25.3196 136.2697,15.3718 36.7783,45.1751 27.3076,113.0676 -17.4491,149.1489"
       transform="scale(1,-1)" />
    <path
       sodipodi:type="spiral"
       style="opacity:0.475207;fill:none;fill-rule:evenodd;stroke:#000000;stroke-width:3.3;stroke-miterlimit:4;stroke-dasharray:none"
       id="path219"
       sodipodi:cx="1287.3231"
       sodipodi:cy="127"
       sodipodi:expansion="1"
       sodipodi:revolution="3"
       sodipodi:radius="174.49168"
       sodipodi:argument="-18.206055"
       sodipodi:t0="0"
       d="m 1287.3231,127 c 6.999,5.24924 -3.6228,12.02429 -8.7246,11.63278 -13.8254,-1.06097 -18.4317,-17.9175 -14.5409,-29.08195 6.9596,-19.970588 31.6198,-25.716553 49.4393,-17.449164 26.1507,12.132724 33.1841,45.496134 20.3573,69.796674 -17.096,32.38881 -59.4325,40.72759 -90.154,23.26555 -38.6599,-21.97419 -48.3099,-73.39726 -26.1737,-110.511404 26.8098,-44.950197 87.3778,-55.914592 130.8687,-29.081931 51.2526,31.621362 63.5334,101.368275 31.9901,151.226135 -36.4179,57.56287 -115.3653,71.16152 -171.5835,34.89831 -63.8786,-41.20456 -78.7962,-129.36697 -37.8065,-191.940857 45.9843,-70.198444 143.3721,-86.435731 212.2983,-40.71469922 76.5211,50.75901122 94.0788,157.37961622 43.6229,232.65558622"
       transform="matrix(0.83286391,0,0,0.8206464,244.99545,42.619672)" />
    <path
       sodipodi:type="spiral"
       style="opacity:0.710744;fill:none;fill-rule:evenodd;stroke:#000000;stroke-width:6.2;stroke-miterlimit:4;stroke-dasharray:none"
       id="path195"
       sodipodi:cx="57.332981"
       sodipodi:cy="555.88068"
       sodipodi:expansion="1"
       sodipodi:revolution="3"
       sodipodi:radius="192.63562"
       sodipodi:argument="-17.460928"
       sodipodi:t0="0"
       d="m 57.332981,555.88068 c 1.749748,9.49862 -11.940696,7.04491 -15.787343,2.90819 -10.424175,-11.21024 -1.543495,-28.33622 9.970952,-34.48288 20.596644,-10.99493 44.907937,2.80257 53.17842,22.8501 12.13726,29.42055 -7.130538,61.75755 -35.729246,71.87396 C 30.848183,632.51362 -9.7470153,607.58808 -21.603733,570.42165 -36.524201,523.6515 -5.8606735,474.70162 39.883807,461.15662 95.286502,444.75181 152.64075,481.19445 167.84438,535.52331 185.76134,599.54798 143.5158,665.33569 80.598546,682.17942 7.9580879,701.62617 -66.281646,653.56276 -84.753104,582.05444 -105.74155,500.80213 -51.850238,418.09776 28.251024,398.00725 118.11254,375.46873 209.2905,435.19499 230.99375,523.89052 255.08847,622.35938 189.52213,722.01754 92.231329,745.32879"
       transform="rotate(70.142401,56.456358,692.44269)" />
  </g>
  <g
     inkscape:groupmode="layer"
     id="layer1"
     inkscape:label="Layer 1">
    <g
       id="g841"
       transform="rotate(5.9131192,697.87984,764.88084)">
      <path
         id="path845"
         style="fill:#000000;stroke:#000000;stroke-width:10.4504;stroke-miterlimit:4;stroke-dasharray:none;stroke-opacity:1"
         d="M 270.36927,1404.4979 C 184.8671,1398.3112 93.642734,1329.091 106.47704,1235.606 c 20.00435,-119.3327 147.79981,-187.9997 260.55144,-189.0437 45.94413,1.4315 56.45932,7.5897 56.82109,-45.5319 0.69522,-233.51962 -1.48145,-467.05476 0.20482,-700.56402 288.43989,-59.2215 576.81821,-119.03984 865.68591,-176.05926 1.3255,317.35933 0.8866,634.74928 -1.2616,952.10478 -20.6186,115.0182 -144.7242,177.4973 -252.508,181.5589 -85.52085,6.4784 -187.17843,-38.7224 -203.84074,-130.5648 -12.89174,-105.2934 82.77062,-187.39038 174.98274,-215.53952 48.7716,-19.52429 110.5875,-7.7642 141.2159,-20.3773 0.881,-163.84609 1.4961,-327.74062 -0.3428,-491.57194 -53.898,2.03854 -115.3668,16.98166 -173.27522,26.12333 -135.44416,27.59262 -270.86637,55.29407 -406.32084,82.83533 -1.84365,236.80875 -0.87656,479.74693 -5.42116,716.4922 -27.36225,116.8446 -156.0126,183.9119 -269.08546,180.9168 l -11.78045,-0.6754 z M 320,1402.9471 c 106.59193,-6.2875 229.7654,-82.4906 241.53361,-188.3534 4.40487,-222.19098 -3.26302,-444.65866 6.03805,-666.70897 -4.9607,-57.23687 48.08498,-42.31992 129.92977,-62.68114 C 848.4062,454.4949 999.25615,423.51016 1150.2005,393 c 1.1234,171.65694 1.3337,343.34638 -0.1011,515 -123.3338,-26.63675 -272.85061,37.75149 -312.26339,163.1856 -26.9942,92.0413 59.6833,173.2079 145.77422,182.0014 119.39477,17.337 262.80287,-43.0079 299.75267,-165.2261 6.7421,-162.20401 2.6591,-325.43802 4.5532,-488.04265 -0.021,-157.63697 1.2055,-315.29308 -0.593,-472.91825 -280.4427,57.72546 -580.21929,122.38763 -860.05892,182.90518 -1.77532,53.60713 -0.33813,98.04193 -1.82243,151.65049 -0.50826,197.49534 3.40877,395.27814 -1.95395,592.59633 -120.96373,-23.0058 -265.36796,36.0459 -309.15604,157.2066 -29.35578,84.0088 41.14429,166.7396 121.14572,183.7399 27.44922,7.4487 56.17955,9.8665 84.52252,7.8486 z" />
    </g>
  </g>
</svg>
