<svg width="73" height="30" viewBox="0 0 73 30" fill="none" xmlns="http://www.w3.org/2000/svg">
<path d="M9.288 28C8.904 28 8.616 27.928 8.424 27.784C8.256 27.64 8.172 27.4 8.172 27.064V22.348C7.86 22.132 7.272 21.94 6.408 21.772C5.544 21.604 4.728 21.496 3.96 21.448C3.696 21.952 3.504 22.564 3.384 23.284L3.24 24.004C3.216 24.172 3.144 24.544 3.024 25.12C2.904 25.696 2.772 26.2 2.628 26.632C2.484 27.04 2.34 27.364 2.196 27.604C1.284 27.604 0.756 27.364 0.612 26.884C0.876 26.5 1.176 25.372 1.512 23.5L2.7 16.912C3.228 13.792 3.708 11.128 4.14 8.92C4.596 6.712 5.076 4.864 5.58 3.376C6.132 1.72 6.66 0.891999 7.164 0.891999C7.668 0.891999 8.052 0.987999 8.316 1.18C8.316 2.14 8.544 4.456 9 8.128C9.48 11.728 9.72 14.188 9.72 15.508C9.72 16.78 9.852 18.604 10.116 20.98C10.356 23.404 10.476 25.336 10.476 26.776C10.476 27.592 10.08 28 9.288 28ZM7.416 20.26C7.608 20.26 7.848 20.224 8.136 20.152C8.064 19.096 7.944 17.788 7.776 16.228C7.224 10.804 6.948 7.48 6.948 6.256V5.968C6.708 6.208 6.372 7.3 5.94 9.244C5.532 11.164 5.148 13.228 4.788 15.436C4.428 17.644 4.236 19.108 4.212 19.828C5.22 20.116 6.288 20.26 7.416 20.26ZM29.2899 29.872C28.5459 29.872 28.1739 29.128 28.1739 27.64V25.336V23.032C28.1739 21.832 28.0899 20.26 27.9219 18.316C27.7299 16.132 27.6339 14.632 27.6339 13.816L27.7059 11.584C27.7539 10.936 27.7779 10.204 27.7779 9.388C27.6819 9.7 27.2859 11.356 26.5899 14.356C25.8939 17.26 25.1739 19.948 24.4299 22.42C23.7099 24.796 23.1219 25.984 22.6659 25.984C22.2099 25.984 21.8379 25.852 21.5499 25.588C21.2859 25.3 21.1539 24.916 21.1539 24.436C21.1539 23.38 20.7219 21.136 19.8579 17.704C19.0179 14.272 18.2499 11.464 17.5539 9.28L17.3379 13.348C17.1459 16.78 17.0139 19.636 16.9419 21.916C16.8939 24.124 16.8699 25.636 16.8699 26.452C16.8699 26.644 16.8819 26.824 16.9059 26.992V27.496C16.9059 27.904 16.8219 28.204 16.6539 28.396C16.4859 28.612 16.1739 28.72 15.7179 28.72C15.4779 28.72 15.2499 28.624 15.0339 28.432C14.8179 28.264 14.7099 28.072 14.7099 27.856C14.7099 25.408 14.8899 21.736 15.2499 16.84C15.6099 11.944 15.7899 8.272 15.7899 5.824C15.6459 5.608 15.5739 5.38 15.5739 5.14C15.5739 4.852 15.7059 4.636 15.9699 4.492C16.2579 4.324 16.5939 4.24 16.9779 4.24C17.2899 4.24 17.8659 5.368 18.7059 7.624C19.5459 9.88 20.3859 12.436 21.2259 15.292C22.0659 18.148 22.6059 20.212 22.8459 21.484C23.0379 20.836 23.1939 20.236 23.3139 19.684L23.5299 18.82C24.2979 15.46 25.0659 12.424 25.8339 9.712C26.2899 8.056 26.7339 6.76 27.1659 5.824C27.5979 4.816 27.9939 4.312 28.3539 4.312C28.6899 4.312 28.9899 4.408 29.2539 4.6C29.5419 4.768 29.6859 4.996 29.6859 5.284C29.6859 7.012 29.7579 9.604 29.9019 13.06C30.0699 16.276 30.1539 18.772 30.1539 20.548L30.1179 22.456L30.0459 24.364C30.0459 24.652 30.0819 25.084 30.1539 25.66L30.2619 26.92C30.2859 27.136 30.2979 27.304 30.2979 27.424C30.3219 27.544 30.3339 27.616 30.3339 27.64C30.4539 27.952 30.5139 28.18 30.5139 28.324C30.5139 28.732 30.3939 29.092 30.1539 29.404C29.9139 29.716 29.6259 29.872 29.2899 29.872ZM35.7536 28.252C35.4416 26.98 35.2856 25.216 35.2856 22.96L35.3576 19.756C35.4056 18.796 35.4296 17.728 35.4296 16.552C35.2856 16.216 35.2136 15.916 35.2136 15.652V15.544C35.4536 15.088 35.5736 14.056 35.5736 12.448L35.6096 10.792C35.6336 10.264 35.6456 9.676 35.6456 9.028C35.6456 7.612 35.5496 6.496 35.3576 5.68C35.4296 5.344 35.5496 5.056 35.7176 4.816C35.8856 4.552 36.0896 4.42 36.3296 4.42H37.9136C38.5856 4.42 39.1736 4.576 39.6776 4.888C40.1816 5.176 40.5656 5.596 40.8296 6.148C41.3096 7.132 41.5496 8.296 41.5496 9.64C41.5496 10.6 41.5376 11.356 41.5136 11.908C41.4656 12.604 41.3456 13.24 41.1536 13.816C41.0816 14.128 40.9736 14.392 40.8296 14.608C40.7096 14.8 40.5296 15.04 40.2896 15.328C39.9536 15.736 39.4016 16.12 38.6336 16.48C38.3216 16.648 37.9136 16.804 37.4096 16.948V20.8L37.4816 23.104L37.5536 24.22C37.6496 25.564 37.6976 26.704 37.6976 27.64C37.6976 27.928 37.5776 28.168 37.3376 28.36C37.0976 28.576 36.8216 28.684 36.5096 28.684L35.7536 28.252ZM37.4456 15.472C38.8616 15.256 39.5696 13.228 39.5696 9.388C39.5696 8.692 39.5336 8.152 39.4616 7.768C39.3896 7.48 39.2936 7.252 39.1736 7.084C39.0536 6.892 38.8736 6.736 38.6336 6.616C38.3696 6.472 38.0816 6.4 37.7696 6.4C37.7696 6.376 37.6376 6.364 37.3736 6.364V8.416C37.3736 9.832 37.3856 11.092 37.4096 12.196C37.4096 13.444 37.4216 14.26 37.4456 14.644V15.4V15.472ZM52.1786 28.324C51.6266 28.324 51.2186 28.24 50.9546 28.072C50.6906 27.904 50.5586 27.592 50.5586 27.136C50.5586 26.416 50.4386 25.192 50.1986 23.464L50.0546 22.708L46.4906 22.168C46.3466 22.72 46.1426 23.836 45.8786 25.516C45.7346 26.692 45.5066 27.472 45.1946 27.856C45.0266 28.072 44.7866 28.18 44.4746 28.18C44.1866 28.18 43.9226 28.096 43.6826 27.928C43.4426 27.736 43.3226 27.508 43.3226 27.244L43.3946 27.064L43.4306 26.92C45.0146 20.752 46.2146 14.668 47.0306 8.668C47.0306 8.572 47.0426 8.416 47.0666 8.2C47.0906 7.96 47.1146 7.624 47.1386 7.192C47.2106 6.304 47.2826 5.596 47.3546 5.068C47.4506 4.54 47.5946 4.144 47.7866 3.88H49.0106C49.3466 3.88 49.6346 3.964 49.8746 4.132C50.1146 4.276 50.2346 4.492 50.2346 4.78C50.2346 6.604 50.4866 9.316 50.9906 12.916C51.4706 16.612 51.7106 19.204 51.7106 20.692C51.7106 20.836 51.7706 21.208 51.8906 21.808C52.0106 22.36 52.0706 22.72 52.0706 22.888C52.0706 23.056 52.1906 23.776 52.4306 25.048C52.6466 26.2 52.7546 26.944 52.7546 27.28V27.316C52.7546 27.844 52.5626 28.18 52.1786 28.324ZM49.8026 21.412C49.7306 21.052 49.6946 20.608 49.6946 20.08C49.6946 17.92 49.5026 15.16 49.1186 11.8L48.7586 8.056C47.7266 13.696 47.0186 17.956 46.6346 20.836C46.9946 21.076 48.0506 21.268 49.8026 21.412ZM62.1444 28.612C61.6164 28.612 61.1364 28.036 60.7044 26.884C60.2004 25.636 59.8284 24.352 59.5884 23.032L59.3364 21.808C58.6404 18.376 58.1964 16.42 58.0044 15.94H57.5724C57.5724 16.636 57.5604 17.272 57.5364 17.848V19.828C57.5364 23.044 57.7644 25.552 58.2204 27.352L57.8244 28.324H56.8164L56.3484 27.784L56.3844 25.372C56.3844 23.212 56.2764 19.936 56.0604 15.544C55.8684 10.864 55.7724 7.588 55.7724 5.716C55.7724 4.564 56.1684 3.988 56.9604 3.988C58.2564 3.988 59.3124 4.324 60.1284 4.996C60.9684 5.668 61.3884 6.604 61.3884 7.804V10.324C61.3884 10.684 61.3284 11.104 61.2084 11.584C61.0884 12.04 60.9564 12.412 60.8124 12.7L60.1284 13.996L59.5524 15.076L59.7324 15.94L60.2364 18.496C60.5724 20.344 60.8964 21.844 61.2084 22.996C61.5204 24.148 61.9044 25.192 62.3604 26.128L62.5764 26.56C62.8164 27.04 62.9364 27.424 62.9364 27.712C62.9364 27.952 62.8644 28.156 62.7204 28.324C62.5764 28.516 62.3844 28.612 62.1444 28.612ZM57.7164 14.176C58.2444 13.912 58.6884 13.192 59.0484 12.016C59.4324 10.816 59.6244 9.712 59.6244 8.704C59.6244 7.936 59.5284 7.216 59.3364 6.544C59.2164 6.16 59.0124 5.872 58.7244 5.68C58.4604 5.464 58.1244 5.356 57.7164 5.356L57.6444 5.536L57.5724 5.86L57.6444 10.108C57.6924 11.356 57.7164 12.712 57.7164 14.176ZM68.4776 27.424L68.4416 26.02C68.4176 25.612 68.4056 25.156 68.4056 24.652L68.4416 23.428C68.3696 23.164 68.1896 20.536 67.9016 15.544C67.6136 10.552 67.4456 7.348 67.3976 5.932C66.0056 5.884 65.1176 5.74 64.7336 5.5C64.4696 5.308 64.3376 5.092 64.3376 4.852C64.3376 4.66 64.4576 4.492 64.6976 4.348C64.9616 4.18 65.2256 4.096 65.4896 4.096C66.1616 4.096 66.9776 4.144 67.9376 4.24C68.8496 4.36 69.6656 4.42 70.3856 4.42H70.6736H70.9616C71.7056 4.42 72.0776 4.708 72.0776 5.284C72.0776 5.572 71.9576 5.812 71.7176 6.004C71.4776 6.172 71.2016 6.256 70.8896 6.256C70.6736 6.256 70.3616 6.22 69.9536 6.148L69.2336 6.004L69.1976 6.184L69.1616 6.364C69.1616 8.5 69.3656 11.908 69.7736 16.588C70.1576 20.98 70.3496 24.388 70.3496 26.812C70.3496 27.1 70.2176 27.352 69.9536 27.568C69.7136 27.784 69.4376 27.892 69.1256 27.892L68.4776 27.424Z" fill="black"/>
</svg>
