<?xml version="1.0" encoding="UTF-8" standalone="no"?>
<svg
   xmlns:dc="http://purl.org/dc/elements/1.1/"
   xmlns:cc="http://creativecommons.org/ns#"
   xmlns:rdf="http://www.w3.org/1999/02/22-rdf-syntax-ns#"
   xmlns:svg="http://www.w3.org/2000/svg"
   xmlns="http://www.w3.org/2000/svg"
   width="1500"
   height="1500"
   viewBox="0 0 396.87499 396.87501"
   version="1.1"
   id="svg8">
  <defs
     id="defs2" />
  <metadata
     id="metadata5">
    <rdf:RDF>
      <cc:Work
         rdf:about="">
        <dc:format>image/svg+xml</dc:format>
        <dc:type
           rdf:resource="http://purl.org/dc/dcmitype/StillImage" />
        <dc:title></dc:title>
      </cc:Work>
    </rdf:RDF>
  </metadata>
  <g
     id="layer1">
    <path
       style="fill:#000000;stroke-width:0.264583"
       d="M 75.009375,371.56491 C -1.8995551,361.44446 38.545326,273.4946 94.92951,277.38096 c 5.88229,0.17795 11.8935,0.17436 17.51841,1.54723 -1.01969,-67.73656 0.009,-131.9963 0.20075,-199.288607 78.31937,-18.399119 159.97403,-30.506497 228.39925,-46.576747 -0.48538,85.064284 -0.25367,175.947034 -1.32621,255.597584 -20.64132,56.86161 -126.81666,52.20729 -118.97583,-2.91042 2.57353,-33.80202 50.97179,-56.92595 83.06158,-45.89652 0.91476,-46.55045 0.46302,-70.68836 0.46302,-135.4107 -54.02085,10.41468 -104.55434,20.49497 -154.58281,31.46126 -0.91453,64.43262 -0.32715,99.01798 -0.73299,185.83623 -5.392,29.93799 -37.3283,47.21064 -62.833155,49.7229 -2.940664,0.25096 -8.627684,0.30303 -11.1125,0.10174 z"
       id="path1000" />
  </g>
</svg>
