<?xml version="1.0" encoding="UTF-8" standalone="no"?>
<svg
   xmlns:dc="http://purl.org/dc/elements/1.1/"
   xmlns:cc="http://creativecommons.org/ns#"
   xmlns:rdf="http://www.w3.org/1999/02/22-rdf-syntax-ns#"
   xmlns:svg="http://www.w3.org/2000/svg"
   xmlns="http://www.w3.org/2000/svg"
   xmlns:sodipodi="http://sodipodi.sourceforge.net/DTD/sodipodi-0.dtd"
   xmlns:inkscape="http://www.inkscape.org/namespaces/inkscape"
   version="1.1"
   id="svg60"
   width="1500"
   height="1500"
   viewBox="0 0 1500 1500"
   sodipodi:docname="mu3.svg"
   inkscape:version="1.0.2 (e86c870, 2021-01-15)">
  <sodipodi:namedview
     pagecolor="#ffffff"
     bordercolor="#666666"
     borderopacity="1"
     objecttolerance="10"
     gridtolerance="10"
     guidetolerance="10"
     inkscape:pageopacity="0"
     inkscape:pageshadow="2"
     inkscape:window-width="1920"
     inkscape:window-height="1013"
     id="namedview13"
     showgrid="false"
     inkscape:zoom="0.24737728"
     inkscape:cx="-1255.0026"
     inkscape:cy="730.3685"
     inkscape:window-x="0"
     inkscape:window-y="30"
     inkscape:window-maximized="1"
     inkscape:current-layer="svg60"
     inkscape:document-rotation="0" />
  <metadata
     id="metadata66">
    <rdf:RDF>
      <cc:Work
         rdf:about="">
        <dc:format>image/svg+xml</dc:format>
        <dc:type
           rdf:resource="http://purl.org/dc/dcmitype/StillImage" />
        <dc:title />
      </cc:Work>
    </rdf:RDF>
  </metadata>
  <defs
     id="defs64" />
  <g
     id="g68"
     transform="matrix(53.838645,0,0,53.838645,-643.40069,-682.64972)"
     style="fill:#000000;fill-opacity:1">
    <g
       id="g72"
       style="fill:#000000;fill-opacity:1">
      <path
         style="fill:#000000;fill-opacity:1;stroke-width:0.0537514"
         d="m 26.611187,19.050392 c 1.3e-5,0 2.7e-5,3e-6 4e-5,4e-6 z"
         id="path102" />
      <path
         style="fill:#000000;fill-opacity:1;stroke-width:0.0537514"
         d="m 26.611187,18.889138 c 1.3e-5,0 2.7e-5,3e-6 4e-5,4e-6 z"
         id="path100" />
      <path
         style="fill:#000000;fill-opacity:1;stroke-width:0.0537514"
         d="m 25.461126,18.050387 c -16.974084,-12.0335913 -8.487042,-6.016796 0,0 z"
         id="path92" />
      <path
         style="fill:#000000;fill-opacity:1;stroke-width:0.0537514"
         d="m 30.427536,16.954088 c 1.7e-5,-10e-7 3.3e-5,2e-6 5e-5,3e-6 z"
         id="path90" />
      <path
         style="fill:#000000;fill-opacity:1;stroke-width:0.0537514"
         d="m 25.96617,30.660695 c 0.0026,-0.06262 0.01532,-0.07535 0.03247,-0.03248 0.01553,0.0388 0.01362,0.08516 -0.0042,0.103023 -0.01786,0.01786 -0.03056,-0.01389 -0.02823,-0.07055 z"
         id="path78" />
      <path
         style="fill:#000000;fill-opacity:1;stroke-width:0.0537514"
         d="m 26.741321,40.584249 c -1.050279,-0.165872 -1.927954,-0.7417 -2.273654,-1.491705 -0.210682,-0.457082 -0.296427,-1.006031 -0.21591,-1.38229 0.797903,-1.699743 1.866244,-1.852977 3.189747,-1.08009 0.767326,1.389616 0.567233,2.083642 -0.524038,2.999171 -0.143226,0.05108 0.02923,0.115828 0.365539,0.137243 2.391254,-0.407887 1.80893,-3.30322 1.549702,-4.593042 -0.144259,-0.705524 -0.144259,-0.705524 -1.037194,-0.733837 -5.393111,-0.284246 -7.05795,-5.633535 -4.477835,-9.714055 0.96759,-1.138093 2.265029,-2.357044 2.380102,-3.447524 -0.179025,-0.984394 -0.236432,-1.853965 -0.204575,-3.098765 -0.201737,-2.100533 1.433363,-6.823634 3.902253,-4.283075 2.090896,3.044957 0.367535,6.202227 -1.264589,8.612957 -0.868014,1.277457 -0.868014,1.277457 -0.664611,2.217257 0.324366,1.498697 0.281942,1.396614 0.580609,1.397092 1.614844,0.0026 2.96931,0.98643 3.546249,2.575881 0.329669,2.537039 -0.614481,4.227162 -2.06738,5.513299 0.01227,0.05913 0.127406,0.60336 0.255865,1.209407 0.576014,2.477529 0.242754,4.543793 -2.395261,5.178671 -0.206943,0.01422 -0.4972,0.0067 -0.645017,-0.0166 z m 1.191365,-7.112842 c 0.152675,-0.0357 0.282349,-0.08346 0.288164,-0.10612 0.0058,-0.02267 -0.0062,-0.1557 -0.02666,-0.295633 -0.05718,-0.390712 -0.882552,-4.324648 -0.913927,-4.356023 -0.04153,-0.04153 -0.305272,0.248163 -0.617813,0.35109 -1.358638,5.321825 -2.383057,-0.337905 -0.04502,-2.479539 0.466144,-0.409128 -0.06008,-1.178437 -0.224354,-1.739678 -0.05959,-0.229524 -0.05959,-0.229524 -0.231919,-0.01489 -2.589797,3.348559 -2.89018,7.40578 0.365185,8.674359 0.22919,0.04995 1.142444,0.02815 1.40637,-0.03357 z m 1.978432,-4.151868 c -0.45889,-1.010884 -1.585076,-0.682856 -1.60797,-0.683481 0.684197,6.685202 2.964173,3.209062 1.60797,0.683481 z M 27.286156,20.35947 c 3.366908,-3.285702 0.0021,-7.541203 -0.627303,-2.142691 -0.06452,0.584222 -0.04368,2.108527 0.03441,2.517507 0.127997,0.318184 0.434804,-0.2181 0.592896,-0.374818 z"
         id="path74" />
    </g>
  </g>
</svg>
